HIERARCHY
ROOT pelvis
{
  OFFSET 0 100 0
  CHANNELS 6 Xposition Yposition Zposition Zrotation Xrotation Yrotation
  JOINT pelvis_right_femur
  {
    OFFSET -10.78128 -3.44521 -0.5502486
    CHANNELS 3 Zrotation Xrotation Yrotation
    JOINT right_femur_tibia
    {
      OFFSET -0.8047443 -44.0398 -0.1307829
      CHANNELS 3 Zrotation Xrotation Yrotation
      JOINT right_tibia_foot
      {
        OFFSET 3.006224 -47.83518 -5
        CHANNELS 3 Zrotation Xrotation Yrotation
        End Site
        {
          OFFSET 0 -5 15
        }
      }
    }
  }
  JOINT pelvis_left_femur
  {
    OFFSET 10.78128 -3.44521 -0.5502486
    CHANNELS 3 Zrotation Xrotation Yrotation
    JOINT left_femur_tibia
    {
      OFFSET 0.8047443 -44.0398 -0.1307829
      CHANNELS 3 Zrotation Xrotation Yrotation
      JOINT left_tibia_foot
      {
        OFFSET -4.370144 -48.10324 -4.275266
        CHANNELS 3 Zrotation Xrotation Yrotation
        End Site
        {
          OFFSET 0 -5 15
        }
      }
    }
  }
  JOINT pelvis_spine1
  {
    OFFSET 0 6.468898 -3.129235
    CHANNELS 3 Zrotation Xrotation Yrotation
    JOINT spine1
    {
      OFFSET 0 23.15396 4.99043
      CHANNELS 3 Zrotation Xrotation Yrotation
      JOINT spine2
      {
        OFFSET 0 20.79997 -5.064912
        CHANNELS 3 Zrotation Xrotation Yrotation
        JOINT neck
        {
          OFFSET 0 14.38658 9.616178
          CHANNELS 3 Zrotation Xrotation Yrotation
          End Site
          {
            OFFSET 0 20 0
          }
        }
      }
      JOINT right_manubrium
      {
        OFFSET -5.722621 16.35077 3.967754
        CHANNELS 3 Zrotation Xrotation Yrotation
        JOINT right_clavicle
        {
          OFFSET -13.16364 1.694482 -4.693211
          CHANNELS 3 Zrotation Xrotation Yrotation
          JOINT right_humerus
          {
            OFFSET -28.5034 -0.3100689 -2.792744
            CHANNELS 3 Zrotation Xrotation Yrotation
            JOINT right_radius
            {
              OFFSET -25.15693 0.02248979 -1.271978
              CHANNELS 3 Zrotation Xrotation Yrotation
              End Site
              {
                OFFSET -15 0 0
              }
            }
          }
        }
      }
      JOINT left_manubrium
      {
        OFFSET 5.722621 16.35077 3.967754
        CHANNELS 3 Zrotation Xrotation Yrotation
        JOINT left_clavicle
        {
          OFFSET 13.16364 1.694482 -4.693211
          CHANNELS 3 Zrotation Xrotation Yrotation
          JOINT left_humerus
          {
            OFFSET 29.39168 -1.063119 -2.237045
            CHANNELS 3 Zrotation Xrotation Yrotation
            JOINT left_radius
            {
              OFFSET 24.59957 -0.9528479 0.9047498
              CHANNELS 3 Zrotation Xrotation Yrotation
              End Site
              {
                OFFSET 15 -0 -0
              }
            }
          }
        }
      }
    }
  }
}
MOTION
Frames: 11
Frame Time: 0.0416666666667
27.55789 101.1272 269.3035 -0.4530735 -2.350961 -2.00857 2.421717 8.419227 6.624614 -0 35.711 -0 16.07465 -9.14534 -0.4200681 1.314574 -29.55057 -3.031666 -0 26.72623 -0 -8.220101 -8.546491 18.14434 1.458673 -6.075592 9.144061 -2.305927 9.262508 -1.806443 2.216543 20.69128 6.535032 1.859927 -16.97494 8.173485 1.828206 -20.97805 10.57038 76.80573 20.12002 -0.5914991 -0 0 24.56706 -25.27064 11.06936 15.48619 2.872914 -13.39159 -2.983235 -92.09975 22.17693 24.79906 0 0 -10.3837 -3.966225 6.198071 17.21961
28.63963 101.5537 276.1516 -0.4101584 -2.191623 -1.431548 1.658564 7.263872 6.39822 -0 42.77613 -0 16.61015 -6.239424 -1.669945 -0.02171733 -26.64664 -4.040092 -0 28.375 -0 -7.745254 -9.612634 17.46062 1.151156 -7.014651 8.689501 -2.208757 9.14672 -1.967862 2.256069 21.02799 6.484614 1.828322 -16.74178 8.199497 2.128911 -19.92691 10.1962 77.87396 20.37083 -1.871971 -0 0 23.29669 -25.15303 11.14263 15.1146 2.818271 -13.1777 -3.071886 -91.41169 22.6826 23.79291 0 0 -10.34312 -4.03759 6.476476 17.23377
29.72653 102.134 282.5254 -0.3482186 -1.944429 -0.5270071 1.71371 2.919313 5.806561 -0 50.38269 -0 16.5878 -4.134912 -3.639161 -1.195737 -22.90333 -4.689004 -0 28.2821 -0 -7.050066 -11.75312 16.77148 1.009585 -7.479706 7.816281 -2.210502 9.10567 -2.287637 2.176642 21.55719 6.473643 1.715156 -16.37609 8.210025 2.498805 -19.01206 9.988458 79.01066 20.83795 -3.330852 -0 0 21.43201 -24.78658 11.31263 14.52872 2.643706 -13.54541 -3.344034 -90.09973 23.34018 21.90704 0 0 -10.65248 -3.886487 6.894706 17.00169
30.61585 103.2466 288.4149 -0.2940701 -1.708201 0.3360946 1.881633 -2.871255 5.529658 -0 56.61935 -0 15.73721 -3.816015 -5.426065 -2.009014 -18.90265 -5.32675 -0 27.4006 -0 -6.541047 -13.59944 16.1603 0.6928621 -8.08662 6.785786 -2.187084 9.07864 -2.636106 1.954068 21.83008 6.596754 1.522504 -16.23573 8.269388 3.266001 -17.86686 10.07872 80.47711 21.48107 -5.093003 -0 0 19.07098 -24.16521 11.56853 13.76864 2.361022 -13.81246 -3.865336 -88.52393 24.04576 19.74618 0 0 -10.69743 -3.738785 7.286546 16.80666
31.49234 104.6382 294.1 -0.2543302 -1.518986 1.024069 2.01312 -10.66254 5.575903 -0 58.86874 -0 14.51988 -5.090412 -6.617313 -2.524847 -14.88049 -5.987945 -0 25.75118 -0 -6.318598 -14.90063 15.51726 0.3890943 -8.537988 5.544113 -1.894352 9.075079 -3.314046 1.759031 22.42367 6.755365 1.348882 -15.84175 8.418001 3.842445 -16.80557 10.08919 82.06909 22.14419 -7.000506 -0 0 16.78049 -23.45162 11.83199 13.02024 2.208609 -14.42904 -4.563813 -86.7031 24.71275 16.84948 0 0 -11.32754 -3.449166 7.805637 16.38681
32.32817 105.6739 299.2219 -0.1694536 -1.091015 2.585149 2.507933 -17.52703 5.534425 -0 57.05404 -0 13.13157 -5.609455 -7.881352 -3.056787 -10.16891 -6.46661 -0 22.89936 -0 -6.205381 -16.13751 14.52463 -0.1317612 -8.660139 4.0652 -1.46994 8.969171 -4.486946 1.723088 22.88573 6.854834 1.254411 -15.36372 8.611322 3.874681 -15.88033 9.911228 83.55694 22.724 -8.909946 -0 0 14.85835 -22.76273 12.03139 12.40225 2.311766 -15.0571 -5.464267 -84.90312 25.27889 13.61195 0 0 -12.36365 -3.113261 8.374867 15.75409
33.24396 106.0657 304.3196 -0.05979623 -0.4394297 4.961749 2.698214 -23.37843 6.074523 -0 51.71916 -0 11.60505 -5.472343 -9.230266 -3.34467 -6.021886 -6.840171 -0 19.93861 -0 -6.159844 -17.51254 13.34138 -0.5606393 -9.034752 2.675757 -0.8792385 8.695255 -5.84294 1.875611 23.25913 6.793751 1.257167 -14.86058 8.752802 3.329395 -14.76289 9.353668 84.92655 23.15528 -11.05697 -0 0 13.11071 -22.10627 12.1372 11.82721 2.814127 -15.79716 -6.051888 -83.10598 25.66334 10.07767 0 0 -14.10811 -2.58933 9.047345 14.80791
33.93542 105.9019 309.8566 0.009635045 0.07946776 6.852165 1.949892 -27.41669 6.10347 -0 43.37571 -0 10.02285 -5.227979 -10.41711 -3.367222 -2.123506 -6.87466 -0 17.57833 -0 -6.146668 -19.0824 12.31034 -1.131839 -9.503168 1.706683 -0.2911978 8.350006 -6.935053 2.156107 23.52116 6.582222 1.311951 -14.48232 8.819472 2.749155 -13.63361 8.712143 86.11548 23.46759 -13.2169 -0 0 11.38691 -21.40153 12.16924 11.17307 3.430172 -16.58355 -6.25643 -81.24752 25.83694 6.622984 0 0 -16.18686 -1.923223 9.776355 13.61989
34.66893 105.2668 315.2761 0.05656664 0.5198278 8.458792 0.8216788 -30.7244 5.687539 -0 33.72368 -0 8.262776 -5.121933 -11.51466 -3.253156 1.40167 -6.951276 -0 16.30803 -0 -6.127557 -20.72286 11.38226 -1.514428 -9.462013 0.9768846 0.2366762 8.120847 -7.808904 2.506432 23.48309 6.251664 1.380762 -14.36071 8.793304 2.337882 -12.33919 8.20616 87.49571 23.61284 -15.37652 -0 0 9.508728 -20.38878 12.08469 10.29374 3.966778 -17.46223 -6.335916 -79.55054 25.85545 3.399895 0 0 -18.30577 -1.1359 10.47728 12.30915
35.09969 104.0611 320.2612 0.07748783 0.7539411 9.316735 0.0471246 -33.46232 4.998823 -0 24.75262 -0 6.233147 -5.845687 -11.87823 -2.948215 4.404327 -6.942873 -0 16.09364 -0 -6.14822 -22.29189 10.74143 -1.680037 -9.061101 0.9143806 0.5791889 7.770559 -7.877147 2.804776 23.54671 5.85944 1.433381 -14.22672 8.647606 2.068715 -11.36557 8.028292 88.73344 23.68198 -17.12893 -0 0 7.478348 -19.08956 11.94401 9.117836 4.512279 -18.5385 -6.117701 -77.84584 25.74795 0.1364938 0 0 -20.36223 -0.2732514 11.13347 10.96565
35.45756 103.1037 325.6915 0.08323608 0.8185107 9.557497 0.2010239 -35.70782 4.212185 -0 20.07003 -0 4.04471 -6.705519 -12.47387 -2.659671 7.171863 -6.953863 -0 17.05583 -0 -6.353897 -23.23332 10.47965 -1.654211 -8.461754 1.041021 0.887683 7.59531 -7.593839 2.957393 23.53169 5.53721 1.41842 -14.2886 8.464802 2.229897 -10.35485 8.083116 89.8308 23.65627 -18.66451 -0 0 5.248361 -17.44711 11.74337 7.679317 4.814363 -19.42973 -5.785501 -76.68754 25.58207 -2.205108 0 0 -21.88744 0.5802189 11.72324 9.733134
